<?xml version="1.0" encoding="UTF-8"?>
<svg id="Layer_1" xmlns="http://www.w3.org/2000/svg" version="1.1" viewBox="0 0 512 512">
  <!-- Generator: Adobe Illustrator 30.0.0, SVG Export Plug-In . SVG Version: 2.1.1 Build 123)  -->
  <defs>
    <style>
      .st0 {
        fill: #e20017;
        stroke: #e20017;
        stroke-miterlimit: 10;
        stroke-width: 1.9px;
      }

      .st1 {
        fill: #00549c;
      }
    </style>
  </defs>
  <g>
    <path class="st0" d="M80.1,267.7c.5.6,1,1.2,1.7,1.7.6.5,1.2.9,1.8,1.2.6.3,1,.5,1.2.6h-24c.3-.1.8-.3,1.4-.6.6-.3,1.3-.7,1.9-1.2.6-.5,1.2-1,1.7-1.7.5-.6.7-1.4.7-2.2v-34.9c0-3.8-.5-7.5-1.5-11-1-3.5-2.4-6.7-4.2-9.4-1.8-2.7-4-4.8-6.5-6.3-2.5-1.5-5.3-2.3-8.3-2.3-3.7.1-6.7,1-9.1,2.5-2.4,1.6-4.3,3.5-5.7,5.9-1.4,2.3-2.4,4.8-2.9,7.5-.5,2.7-.8,5.2-.8,7.4v40.6c0,.8.2,1.6.7,2.2.5.6,1,1.2,1.6,1.7.6.5,1.2.9,1.7,1.2.6.3,1,.5,1.2.6H8.9c.3-.1.8-.3,1.4-.6.6-.3,1.3-.7,1.9-1.2.6-.5,1.2-1,1.7-1.7.5-.6.7-1.4.7-2.2v-59.7c0-.8-.3-1.6-.8-2.3s-1.2-1.3-1.9-1.8c-.7-.5-1.4-.9-2.1-1.2s-1-.4-1.1-.6h18.7v12.1c1.5-3.1,3.6-5.8,6.3-8.3,2.8-2.4,6.4-4,11-4.6,4.4-.6,8.8-.4,12.9.6,4.2,1.1,7.9,2.9,11,5.4,3.2,2.5,5.7,5.8,7.7,9.7,2,3.9,2.9,8.4,2.9,13.5v37.1c0,.8.2,1.6.7,2.2Z"/>
    <path class="st0" d="M137.8,202c4.1,1.9,7.7,4.5,10.8,7.9,3.1,3.3,5.5,7.2,7.2,11.6,1.7,4.4,2.6,9.1,2.6,14.2s-.9,9.8-2.6,14.2c-1.7,4.4-4.2,8.3-7.2,11.6-3.1,3.3-6.7,6-10.8,7.9s-8.5,2.9-13.2,2.9-9-1-13.1-2.9c-4.1-1.9-7.6-4.5-10.7-7.9-3.1-3.3-5.5-7.2-7.3-11.6-1.8-4.4-2.7-9.1-2.7-14.2s.9-9.8,2.7-14.2,4.2-8.3,7.3-11.6c3.1-3.3,6.6-6,10.7-7.9,4.1-1.9,8.4-2.9,13.1-2.9s9,1,13.2,2.9ZM134.7,267.8c2.7-1.8,4.8-4.3,6.4-7.5,1.6-3.2,2.7-6.9,3.4-11.1.7-4.2,1-8.8,1-13.6s-.3-9.4-1-13.6-1.8-7.9-3.4-11.1c-1.6-3.2-3.7-5.7-6.4-7.5-2.7-1.8-6.1-2.7-10.1-2.7s-7.4.9-10,2.7c-2.6,1.8-4.8,4.2-6.4,7.3-1.6,3.1-2.8,6.7-3.5,11s-1,8.8-1,13.6.3,9.4,1,13.7,1.9,8,3.5,11.2,3.8,5.7,6.4,7.5c2.6,1.9,6,2.8,10,2.8s7.4-.9,10.1-2.7Z"/>
    <path class="st0" d="M169.2,203.5c-.5-.7-1.2-1.3-1.9-1.7-.7-.5-1.4-.9-2.1-1.2-.6-.3-1-.5-1.1-.6h24.3c-.1.1-.4.3-1,.6-.6.3-1.2.7-1.9,1.2-.7.5-1.3,1.1-1.8,1.7s-.8,1.5-.8,2.3v33.5c0,5.4.5,10.1,1.6,14.1,1.1,4,2.5,7.3,4.4,9.9,1.9,2.6,4,4.4,6.3,5.5,2.4,1.1,4.9,1.3,7.5.8,3.7-.7,6.8-2.3,9.2-4.8,2.4-2.4,4.4-5.2,5.9-8.3,1.5-3.1,2.5-6.2,3.2-9.5s1-6.1,1-8.4v-32.9c0-.8-.3-1.6-.8-2.3s-1.2-1.3-1.9-1.7c-.7-.5-1.4-.9-2.1-1.2-.6-.3-1-.5-1.1-.6h24.4c-.1.1-.5.3-1.1.6-.6.3-1.3.7-2,1.2-.7.5-1.3,1.1-1.8,1.7s-.8,1.5-.8,2.3v59.7c0,.8.2,1.6.7,2.3.5.7,1,1.3,1.7,1.8s1.2,1,1.8,1.3c.6.3,1,.5,1.2.5h-18.3v-21.1c-.6,2.1-1.4,4.3-2.4,6.4-1,2.2-2.2,4.2-3.7,6.1-1.5,1.9-3.3,3.6-5.3,5.2-2.1,1.5-4.4,2.7-7.1,3.4-3.7,1.1-7.5,1.3-11.5.8-4-.5-7.6-2-10.9-4.4-3.3-2.4-6-5.7-8-10.1-2.1-4.3-3.1-9.7-3.1-16v-35.9c0-.8-.3-1.6-.8-2.3Z"/>
    <path class="st0" d="M253.9,203.5c-.7-.7-1.4-1.3-2.1-1.7-.7-.5-1.4-.9-2.1-1.2-.6-.3-1.1-.5-1.4-.6h23.8c-.8.7-1.5,1.4-2.1,2.1-.5.5-.9,1.1-1.2,1.8-.3.7-.2,1.3,0,2l24.4,55.9,9-19.8-15.7-36c-.4-.8-1-1.6-1.7-2.3s-1.4-1.3-2.1-1.7c-.7-.5-1.4-.9-2.1-1.2-.6-.3-1.1-.5-1.4-.6h23.8c-.8.7-1.5,1.4-2.1,2.1-.5.5-.9,1.1-1.2,1.8-.3.7-.2,1.3,0,2l24.4,55.9,11.3-24.4c3.3-7.5,5.7-14.4,7.4-20.6,1.6-6.2,2-11.8,1-16.7h11.1l-33.3,71.4h-6.7l-11.7-27.1-12.7,27.1h-6.7l-28.6-65.5c-.4-.8-1-1.6-1.7-2.3Z"/>
    <path class="st0" d="M399.5,229.3c-3.7,2.3-7.2,4.9-10.7,7.7-3.5,2.8-6.6,5.7-9.3,8.7-2.7,3-4.5,6-5.5,9-.8,2.5-.8,5,.2,7.3,1.8,2.8,4,4.9,6.6,6.3s5.6,2.2,9,2.2c6.1,0,11.7-1.5,16.7-4.4,5-3,8.9-7,11.9-12.2h1.6c-3.1,5.5-7.2,9.9-12.5,13.3-5.3,3.3-11.2,5-17.6,5s-9.3-1-13.5-2.9c-4.2-1.9-7.9-4.5-11.1-7.8-3.2-3.3-5.7-7.1-7.5-11.6-1.8-4.4-2.7-9.2-2.7-14.1s.9-9.8,2.7-14.2c1.8-4.4,4.3-8.3,7.5-11.6,3.2-3.3,6.9-6,11.1-7.9,4.2-1.9,8.7-2.9,13.5-2.9s12.3,1.7,17.6,5,9.5,7.8,12.5,13.3l-10.8,5.9c-2.8,1.6-6,3.5-9.6,5.9ZM377.2,245.8c2.3-2.8,5-5.5,8-8.1,3-2.6,6.2-5,9.5-7.2,3.3-2.2,6.4-4.2,9.3-6,1.7-1.1,2.9-2.5,3.6-4.4.7-1.9.7-3.7,0-5.5-1.4-4.1-3.6-7.5-6.7-10-3.1-2.5-7-3.8-11.5-3.8s-7.1.9-9.8,2.7c-2.7,1.8-4.9,4.3-6.7,7.5-1.7,3.2-3,6.9-3.9,11.1-.8,4.2-1.3,8.8-1.3,13.6s.3,8,1,11.7,1.6,7,3,10c0-.5,0-1.1.2-1.7.1-.6.3-1.1.5-1.7.8-2.8,2.4-5.5,4.8-8.3Z"/>
    <path class="st0" d="M498.6,267.7c.5.6,1,1.2,1.7,1.7.6.5,1.2.9,1.8,1.2s1,.5,1.2.6h-24c.3-.1.8-.3,1.4-.6.6-.3,1.3-.7,1.9-1.2.6-.5,1.2-1,1.7-1.7.5-.6.7-1.4.7-2.2v-34.9c0-3.8-.5-7.5-1.5-11s-2.4-6.7-4.2-9.4c-1.8-2.7-4-4.8-6.5-6.3-2.5-1.5-5.3-2.3-8.3-2.3-3.7.1-6.7,1-9.1,2.5-2.4,1.6-4.3,3.5-5.7,5.9-1.4,2.3-2.4,4.8-2.9,7.5-.5,2.7-.8,5.2-.8,7.4v40.6c0,.8.2,1.6.7,2.2.5.6,1,1.2,1.6,1.7.6.5,1.2.9,1.7,1.2.6.3,1,.5,1.2.6h-23.8c.3-.1.8-.3,1.4-.6s1.3-.7,1.9-1.2c.6-.5,1.2-1,1.7-1.7.5-.6.7-1.4.7-2.2v-59.7c0-.8-.3-1.6-.8-2.3s-1.2-1.3-1.9-1.8-1.4-.9-2.1-1.2c-.6-.3-1-.4-1.1-.6h18.7v12.1c1.5-3.1,3.6-5.8,6.3-8.3,2.8-2.4,6.4-4,11-4.6,4.4-.6,8.8-.4,12.9.6,4.2,1.1,7.9,2.9,11,5.4,3.2,2.5,5.7,5.8,7.7,9.7,2,3.9,2.9,8.4,2.9,13.5v37.1c0,.8.2,1.6.7,2.2Z"/>
  </g>
  <g>
    <path class="st1" d="M97.5,286.9v22.4h-1.7v-22.4h1.7Z"/>
    <path class="st1" d="M117.5,287.3v1.5c-1.1-.4-1.9-.6-2.7-.6-2.4,0-3.6,1.5-3.6,4.6v1.8h2.9v1.3h-2.9v13.5h-1.6v-13.5h-2.7v-1.3h2.7v-2.4c0-1.7.5-3.1,1.5-4s2.2-1.5,3.6-1.5,1.7.2,2.7.6Z"/>
    <path class="st1" d="M140.4,294.6v2.6h0c1.2-1.9,2.9-2.9,4.9-2.9s3,.5,4,1.6c1,1.1,1.5,2.6,1.5,4.5v9h-1.6v-8.4c0-3.4-1.3-5.1-4-5.1s-3.6,1.1-4.8,3.2v10.4h-1.6v-14.8h1.6Z"/>
    <path class="st1" d="M168.4,294.3c2.1,0,3.9.7,5.4,2.2,1.4,1.5,2.1,3.3,2.1,5.5s-.7,4-2.1,5.5c-1.4,1.5-3.2,2.2-5.4,2.2s-3.9-.7-5.4-2.2c-1.4-1.5-2.2-3.3-2.2-5.5s.7-4,2.2-5.5c1.4-1.5,3.2-2.2,5.4-2.2ZM168.4,308.1c1.7,0,3-.6,4.2-1.7,1.1-1.2,1.7-2.6,1.7-4.4s-.6-3.2-1.7-4.4c-1.1-1.2-2.5-1.8-4.2-1.8s-3.1.6-4.2,1.8-1.7,2.6-1.7,4.4.6,3.2,1.7,4.4c1.1,1.2,2.5,1.7,4.2,1.7Z"/>
    <path class="st1" d="M188.9,289.7v4.9h4.1v1.3h-4.1v8.8c0,1.4.1,2.3.3,2.8.2.4.8.7,1.9.7s1.7-.2,2.7-.7v1.5c-1,.5-2.1.8-3.1.8s-1.8-.3-2.4-.8c-.7-.6-1-1.3-1-2.3v-10.6h-4v-1.3h4v-3.5l1.1-1.4h.5Z"/>
    <path class="st1" d="M219.8,294.6v2.6h0c1.2-1.9,2.9-2.9,4.9-2.9s3,.5,4,1.6c1,1.1,1.5,2.6,1.5,4.5v9h-1.6v-8.4c0-3.4-1.3-5.1-4-5.1s-3.6,1.1-4.8,3.2v10.4h-1.6v-14.8h1.6Z"/>
    <path class="st1" d="M247.8,294.3c2.1,0,3.9.7,5.4,2.2,1.4,1.5,2.1,3.3,2.1,5.5s-.7,4-2.1,5.5c-1.4,1.5-3.2,2.2-5.4,2.2s-3.9-.7-5.4-2.2c-1.4-1.5-2.2-3.3-2.2-5.5s.7-4,2.2-5.5c1.4-1.5,3.2-2.2,5.4-2.2ZM247.8,308.1c1.7,0,3-.6,4.2-1.7,1.1-1.2,1.7-2.6,1.7-4.4s-.6-3.2-1.7-4.4c-1.1-1.2-2.5-1.8-4.2-1.8s-3.1.6-4.2,1.8-1.7,2.6-1.7,4.4.6,3.2,1.7,4.4c1.1,1.2,2.5,1.7,4.2,1.7Z"/>
    <path class="st1" d="M286.1,294.6l-6.4,15.1h-.8l-4.5-12-4.6,12h-.7l-6.3-15.1h1.6l5,12.1,4.6-12.1h.9l4.5,12.1,5.2-12.1h1.6Z"/>
    <path class="st1" d="M294.9,306.2v2.5c0,1.9-.7,3.5-2.1,4.5v-1.2c.5-.6.7-1.5.7-2.7h-.7v-3.2h2.1Z"/>
    <path class="st1" d="M339.7,294.6l-6.4,15.1h-.8l-4.5-12-4.6,12h-.7l-6.3-15.1h1.6l5,12.1,4.6-12.1h.9l4.5,12.1,5.2-12.1h1.6Z"/>
    <path class="st1" d="M349.9,286.9v10.2h0c1.2-1.9,2.9-2.9,4.9-2.9s3,.5,4,1.6c1,1.1,1.5,2.5,1.5,4.4v9h-1.6v-8.4c0-3.4-1.3-5.1-4-5.1s-3.5,1.1-4.8,3.2v10.4h-1.6v-22.4h1.6Z"/>
    <path class="st1" d="M383.6,301.5h-11.7c0,.3,0,.5,0,.8,0,1.6.6,3,1.8,4.2,1.2,1.1,2.6,1.7,4.2,1.7s3.7-.7,5.5-2.2v1.8c-1.7,1.3-3.6,2-5.7,2s-3.9-.7-5.3-2.2c-1.4-1.5-2.1-3.4-2.1-5.6s.6-4,1.9-5.4c1.3-1.4,2.9-2.1,4.9-2.1s3.4.6,4.6,1.9,1.9,3,1.9,5.2ZM372.2,300.2h9.6c-.6-2.9-2.1-4.3-4.7-4.3s-2.3.4-3.1,1.1c-.9.8-1.5,1.8-1.8,3.2Z"/>
    <path class="st1" d="M394.9,294.6v2.6h0c1.2-1.9,2.9-2.9,4.9-2.9s3,.5,4,1.6,1.5,2.6,1.5,4.5v9h-1.6v-8.4c0-3.4-1.3-5.1-4-5.1s-3.6,1.1-4.8,3.2v10.4h-1.6v-14.8h1.6Z"/>
    <path class="st1" d="M414.9,289.8l.8-2.6c.8-.4,1.5-.6,2.2-.6,1.2,0,2.2.4,3,1.3.8.9,1.1,2,1.1,3.4s-.1,1.6-.4,2.5c-.3.9-.9,2-1.8,3.3s-1.5,2.3-1.7,2.8c-.2.5-.3,1.1-.3,1.5,0,.7.2,1.4.6,2.1l-.6.5c-.8-1-1.3-2-1.3-3s0-1.1.3-1.7c.2-.6.7-1.6,1.6-2.9.8-1.3,1.4-2.4,1.6-3.1.2-.7.4-1.4.4-2.1s-.2-1.6-.7-2.2c-.5-.6-1.1-.9-1.7-.9-1.1,0-1.9.6-2.6,1.7h-.3ZM419,306.2v3.2h-2.1v-3.2h2.1Z"/>
  </g>
</svg>