<?xml version="1.0" encoding="UTF-8"?>
<svg id="Layer_1" xmlns="http://www.w3.org/2000/svg" version="1.1" viewBox="0 0 2000 667">
  <!-- Generator: Adobe Illustrator 30.0.0, SVG Export Plug-In . SVG Version: 2.1.1 Build 123)  -->
  <defs>
    <style>
      .st0 {
        fill: #00549c;
      }

      .st1 {
        fill: #e20017;
        stroke: #e20017;
        stroke-miterlimit: 10;
        stroke-width: 7.4px;
      }
    </style>
  </defs>
  <g>
    <path class="st1" d="M306.3,379.5c1.9,2.5,4.1,4.7,6.6,6.6,2.5,1.9,4.9,3.4,7.2,4.7,2.3,1.3,3.9,2.1,4.7,2.5h-94.5c1.3-.4,3.1-1.3,5.6-2.5,2.5-1.3,5-2.8,7.5-4.7,2.5-1.9,4.7-4.1,6.6-6.6,1.9-2.5,2.8-5.4,2.8-8.8v-137.7c0-15-2-29.5-5.9-43.5-4-14-9.5-26.3-16.6-36.9-7.1-10.6-15.6-19-25.7-25-10-6-20.9-9.1-32.5-9.1-14.6.4-26.6,3.8-36,10-9.4,6.3-16.9,14-22.5,23.2-5.6,9.2-9.5,19.1-11.6,29.7-2.1,10.6-3.1,20.3-3.1,29.1v160.2c0,3.3.9,6.3,2.8,8.8,1.9,2.5,4,4.7,6.3,6.6,2.3,1.9,4.6,3.4,6.9,4.7,2.3,1.3,3.9,2.1,4.7,2.5H25.6c1.3-.4,3.1-1.3,5.6-2.5,2.5-1.3,5-2.8,7.5-4.7,2.5-1.9,4.7-4.1,6.6-6.6,1.9-2.5,2.8-5.4,2.8-8.8v-235.3c0-3.3-1-6.4-3.1-9.1s-4.6-5.1-7.5-7.2c-2.9-2.1-5.6-3.7-8.1-4.7s-4-1.8-4.4-2.2h73.8v47.6c5.8-12.1,14.2-22.9,25-32.5,10.8-9.6,25.2-15.6,43.2-18.1,17.5-2.5,34.5-1.7,51,2.5,16.5,4.2,31,11.3,43.5,21.3,12.5,10,22.6,22.7,30.4,38.2,7.7,15.4,11.6,33.2,11.6,53.2v146.4c0,3.3.9,6.3,2.8,8.8Z"/>
    <path class="st1" d="M533.8,120.4c16.3,7.5,30.5,17.8,42.6,31,12.1,13.1,21.6,28.4,28.5,45.7,6.9,17.3,10.3,36,10.3,56s-3.4,38.7-10.3,56c-6.9,17.3-16.4,32.5-28.5,45.7-12.1,13.1-26.3,23.5-42.6,31s-33.6,11.3-51.9,11.3-35.6-3.8-51.6-11.3c-16.1-7.5-30.1-17.8-42.2-31-12.1-13.1-21.7-28.4-28.8-45.7s-10.6-36-10.6-56,3.5-38.7,10.6-56c7.1-17.3,16.7-32.5,28.8-45.7,12.1-13.1,26.2-23.5,42.2-31,16.1-7.5,33.3-11.3,51.6-11.3s35.7,3.8,51.9,11.3ZM521.6,380.1c10.6-7.1,19.1-16.9,25.3-29.4,6.3-12.5,10.7-27.1,13.5-43.8,2.7-16.7,4.1-34.6,4.1-53.8s-1.4-37.1-4.1-53.8c-2.7-16.7-7.2-31.3-13.5-43.8-6.3-12.5-14.7-22.3-25.3-29.4-10.6-7.1-23.9-10.6-39.7-10.6s-29,3.5-39.4,10.6c-10.4,7.1-18.9,16.7-25.3,28.8-6.5,12.1-11.1,26.5-13.8,43.2-2.7,16.7-4.1,34.6-4.1,53.8s1.4,37.2,4.1,54.1c2.7,16.9,7.3,31.6,13.8,44.1,6.5,12.5,14.9,22.4,25.3,29.7,10.4,7.3,23.6,11,39.4,11s29.1-3.5,39.7-10.6Z"/>
    <path class="st1" d="M657.7,126.4c-2.1-2.7-4.6-5-7.5-6.9-2.9-1.9-5.6-3.4-8.1-4.7-2.5-1.3-4-2.1-4.4-2.5h95.7c-.4.4-1.8,1.3-4.1,2.5-2.3,1.3-4.8,2.8-7.5,4.7-2.7,1.9-5.1,4.2-7.2,6.9s-3.1,5.7-3.1,9.1v132c0,21.3,2.1,39.8,6.3,55.7,4.2,15.9,9.9,28.9,17.2,39.1,7.3,10.2,15.6,17.4,25,21.6,9.4,4.2,19.3,5.2,29.7,3.1,14.6-2.9,26.7-9.2,36.3-18.8,9.6-9.6,17.3-20.4,23.2-32.5,5.8-12.1,10-24.6,12.5-37.5s3.8-24,3.8-33.2v-129.5c0-3.3-1-6.4-3.1-9.1s-4.6-5-7.5-6.9c-2.9-1.9-5.6-3.4-8.1-4.7-2.5-1.3-4-2.1-4.4-2.5h96.4c-.4.4-1.9,1.3-4.4,2.5-2.5,1.3-5.1,2.8-7.8,4.7-2.7,1.9-5.1,4.2-7.2,6.9s-3.1,5.7-3.1,9.1v235.3c0,3.3.9,6.4,2.8,9.1,1.9,2.7,4.1,5.1,6.6,7.2s4.9,3.8,7.2,5c2.3,1.3,3.9,1.9,4.7,1.9h-72v-83.2c-2.5,8.3-5.6,16.8-9.4,25.3-3.8,8.6-8.6,16.6-14.4,24.1-5.8,7.5-12.8,14.3-21,20.3-8.1,6-17.4,10.5-27.8,13.5-14.6,4.2-29.7,5.2-45.4,3.1-15.6-2.1-29.9-7.8-42.9-17.2-12.9-9.4-23.5-22.6-31.6-39.7-8.1-17.1-12.2-38.2-12.2-63.2v-141.4c0-3.3-1-6.4-3.1-9.1Z"/>
    <path class="st1" d="M991.5,126.4c-2.7-2.7-5.5-5-8.4-6.9-2.9-1.9-5.6-3.4-8.1-4.7-2.5-1.3-4.4-2.1-5.6-2.5h93.9c-3.3,2.9-6.1,5.6-8.1,8.1-2.1,2.1-3.7,4.5-4.7,7.2-1,2.7-.9,5.3.3,7.8l96.4,220.3,35.7-78.2-62-142.1c-1.7-3.3-3.9-6.4-6.6-9.1s-5.5-5-8.4-6.9c-2.9-1.9-5.6-3.4-8.1-4.7-2.5-1.3-4.4-2.1-5.6-2.5h93.9c-3.3,2.9-6,5.6-8.1,8.1-2.1,2.1-3.7,4.5-4.7,7.2-1,2.7-.9,5.3.3,7.8l96.4,220.3,44.4-96.4c12.9-29.6,22.6-56.7,29.1-81.4,6.5-24.6,7.8-46.5,4.1-65.7h43.8l-131.4,281.6h-26.3l-46.3-107-50.1,107h-26.3l-112.6-258.5c-1.7-3.3-3.9-6.4-6.6-9.1Z"/>
    <path class="st1" d="M1566,228c-14.4,9.2-28.5,19.3-42.2,30.4-13.8,11.1-26,22.5-36.6,34.4-10.6,11.9-17.8,23.7-21.6,35.4-3.3,10-3.1,19.6.6,28.8,7.1,10.8,15.7,19.2,26,25,10.2,5.8,22,8.8,35.4,8.8,24.2,0,46.1-5.8,65.7-17.5,19.6-11.7,35.3-27.7,46.9-48.2h6.3c-12.1,21.7-28.6,39.1-49.4,52.3-20.9,13.1-44,19.7-69.5,19.7s-36.5-3.8-53.2-11.3c-16.7-7.5-31.3-17.7-43.8-30.7-12.5-12.9-22.3-28.2-29.4-45.7-7.1-17.5-10.6-36.1-10.6-55.7s3.5-38.7,10.6-56c7.1-17.3,16.9-32.5,29.4-45.7,12.5-13.1,27.1-23.5,43.8-31,16.7-7.5,34.4-11.3,53.2-11.3s48.6,6.6,69.5,19.7c20.9,13.1,37.3,30.6,49.4,52.3l-42.6,23.2c-10.8,6.3-23.5,14-37.9,23.2ZM1478.1,293.4c9.2-11.1,19.7-21.7,31.6-31.9,11.9-10.2,24.4-19.7,37.5-28.5,13.1-8.8,25.3-16.7,36.6-23.8,6.7-4.2,11.4-9.9,14.1-17.2,2.7-7.3,2.8-14.5.3-21.6-5.4-16.3-14.3-29.4-26.6-39.4-12.3-10-27.4-15-45.4-15s-27.8,3.5-38.5,10.6c-10.6,7.1-19.4,16.9-26.3,29.4-6.9,12.5-12,27.1-15.3,43.8-3.3,16.7-5,34.6-5,53.8s1.3,31.7,3.8,46.3c2.5,14.6,6.5,27.7,11.9,39.4,0-2.1.2-4.3.6-6.6.4-2.3,1-4.5,1.9-6.6,3.3-10.8,9.6-21.8,18.8-32.9Z"/>
    <path class="st1" d="M1956.5,379.5c1.9,2.5,4.1,4.7,6.6,6.6,2.5,1.9,4.9,3.4,7.2,4.7s3.9,2.1,4.7,2.5h-94.5c1.3-.4,3.1-1.3,5.6-2.5,2.5-1.3,5-2.8,7.5-4.7,2.5-1.9,4.7-4.1,6.6-6.6,1.9-2.5,2.8-5.4,2.8-8.8v-137.7c0-15-2-29.5-5.9-43.5s-9.5-26.3-16.6-36.9c-7.1-10.6-15.6-19-25.7-25-10-6-20.9-9.1-32.5-9.1-14.6.4-26.6,3.8-36,10-9.4,6.3-16.9,14-22.5,23.2-5.6,9.2-9.5,19.1-11.6,29.7-2.1,10.6-3.1,20.3-3.1,29.1v160.2c0,3.3.9,6.3,2.8,8.8,1.9,2.5,4,4.7,6.3,6.6,2.3,1.9,4.6,3.4,6.9,4.7,2.3,1.3,3.9,2.1,4.7,2.5h-93.9c1.3-.4,3.1-1.3,5.6-2.5s5-2.8,7.5-4.7c2.5-1.9,4.7-4.1,6.6-6.6,1.9-2.5,2.8-5.4,2.8-8.8v-235.3c0-3.3-1-6.4-3.1-9.1s-4.6-5.1-7.5-7.2-5.6-3.7-8.1-4.7c-2.5-1-4-1.8-4.4-2.2h73.8v47.6c5.8-12.1,14.2-22.9,25-32.5,10.8-9.6,25.2-15.6,43.2-18.1,17.5-2.5,34.5-1.7,51,2.5,16.5,4.2,31,11.3,43.5,21.3,12.5,10,22.6,22.7,30.4,38.2,7.7,15.4,11.6,33.2,11.6,53.2v146.4c0,3.3.9,6.3,2.8,8.8Z"/>
  </g>
  <g>
    <path class="st0" d="M374.9,455.5v88.5h-6.8v-88.5h6.8Z"/>
    <path class="st0" d="M453.9,456.9v5.8c-4.2-1.5-7.7-2.2-10.5-2.2-9.4,0-14.1,6-14.1,18.1v7.2h11.3v5.1h-11.3v53.2h-6.2v-53.2h-10.8v-5.1h10.8v-9.6c0-6.7,2-12,5.9-15.9s8.7-5.9,14.4-5.9,6.6.8,10.6,2.5Z"/>
    <path class="st0" d="M544.3,485.8v10.1h.3c4.9-7.5,11.3-11.3,19.2-11.3s11.8,2.1,15.8,6.3c3.9,4.2,5.9,10.1,5.9,17.6v35.5h-6.2v-33.2c0-13.4-5.3-20.2-15.8-20.2s-14.1,4.2-19.1,12.5v40.9h-6.2v-58.3h6.2Z"/>
    <path class="st0" d="M654.7,484.6c8.4,0,15.5,2.9,21.1,8.7,5.6,5.8,8.5,13,8.5,21.7s-2.8,15.8-8.5,21.6c-5.6,5.8-12.7,8.6-21.1,8.6s-15.5-2.9-21.2-8.6c-5.7-5.8-8.5-13-8.5-21.6s2.8-15.9,8.5-21.7c5.7-5.8,12.7-8.7,21.2-8.7ZM654.7,539.1c6.5,0,12-2.3,16.4-6.9,4.4-4.6,6.6-10.3,6.6-17.3s-2.2-12.7-6.6-17.3c-4.4-4.6-9.9-7-16.4-7s-12.1,2.3-16.5,6.9-6.6,10.4-6.6,17.4,2.2,12.7,6.6,17.3c4.4,4.6,9.9,6.9,16.5,6.9Z"/>
    <path class="st0" d="M735.3,466.4v19.3h16.3v5.1h-16.3v34.7c0,5.6.5,9.2,1.4,11,.9,1.8,3.3,2.6,7.3,2.6s6.6-1,10.6-2.9v6c-4.1,2-8.1,3-12,3s-7.1-1.1-9.6-3.3c-2.6-2.2-3.9-5.2-3.9-9.1v-41.9h-15.7v-5.1h15.7v-13.9l4.2-5.4h2Z"/>
    <path class="st0" d="M857.2,485.8v10.1h.3c4.9-7.5,11.3-11.3,19.2-11.3s11.8,2.1,15.8,6.3c3.9,4.2,5.9,10.1,5.9,17.6v35.5h-6.2v-33.2c0-13.4-5.3-20.2-15.8-20.2s-14.1,4.2-19.1,12.5v40.9h-6.2v-58.3h6.2Z"/>
    <path class="st0" d="M967.7,484.6c8.4,0,15.5,2.9,21.1,8.7,5.6,5.8,8.5,13,8.5,21.7s-2.8,15.8-8.5,21.6c-5.6,5.8-12.7,8.6-21.1,8.6s-15.5-2.9-21.2-8.6c-5.7-5.8-8.5-13-8.5-21.6s2.8-15.9,8.5-21.7c5.7-5.8,12.7-8.7,21.2-8.7ZM967.7,539.1c6.5,0,12-2.3,16.4-6.9,4.4-4.6,6.6-10.3,6.6-17.3s-2.2-12.7-6.6-17.3c-4.4-4.6-9.9-7-16.4-7s-12.1,2.3-16.5,6.9c-4.4,4.6-6.6,10.4-6.6,17.4s2.2,12.7,6.6,17.3c4.4,4.6,9.9,6.9,16.5,6.9Z"/>
    <path class="st0" d="M1118.8,485.8l-25.2,59.4h-3l-17.9-47.3-18.1,47.3h-2.8l-25-59.4h6.1l19.9,47.5,18.3-47.5h3.4l17.7,47.5,20.4-47.5h6.2Z"/>
    <path class="st0" d="M1153.3,531.4v9.9c0,7.7-2.8,13.7-8.4,17.9v-4.6c1.8-2.5,2.7-6.1,2.7-10.6h-2.7v-12.6h8.4Z"/>
    <path class="st0" d="M1330,485.8l-25.2,59.4h-3l-17.9-47.3-18.1,47.3h-2.8l-25-59.4h6.1l19.9,47.5,18.3-47.5h3.4l17.7,47.5,20.4-47.5h6.2Z"/>
    <path class="st0" d="M1370.2,455.5v40.4h.3c4.9-7.5,11.3-11.3,19.2-11.3s11.8,2.1,15.8,6.3c3.9,4.2,5.9,10,5.9,17.4v35.7h-6.2v-33.2c0-13.4-5.3-20.2-15.8-20.2s-13.9,4.2-19.1,12.5v40.9h-6.2v-88.5h6.2Z"/>
    <path class="st0" d="M1503.2,512.8h-45.9c-.1,1-.2,2-.2,3,0,6.5,2.3,12,7,16.5,4.6,4.5,10.1,6.8,16.5,6.8s14.6-2.9,21.7-8.7v7c-6.7,5.2-14.2,7.7-22.4,7.7s-15.4-2.9-20.8-8.7c-5.5-5.8-8.2-13.2-8.2-22.2s2.5-15.6,7.6-21.2c5.1-5.6,11.4-8.4,19.1-8.4s13.3,2.5,18.3,7.6,7.5,11.9,7.5,20.6ZM1458.1,507.8h37.8c-2.2-11.4-8.3-17-18.4-17s-8.9,1.5-12.4,4.5c-3.5,3-5.8,7.2-6.9,12.6Z"/>
    <path class="st0" d="M1547.8,485.8v10.1h.3c4.9-7.5,11.3-11.3,19.2-11.3s11.8,2.1,15.8,6.3c3.9,4.2,5.9,10.1,5.9,17.6v35.5h-6.2v-33.2c0-13.4-5.3-20.2-15.8-20.2s-14.1,4.2-19.1,12.5v40.9h-6.2v-58.3h6.2Z"/>
    <path class="st0" d="M1626.4,466.8l3-10.1c3-1.6,6-2.3,8.9-2.3,4.8,0,8.7,1.7,11.7,5.1,3,3.4,4.5,7.8,4.5,13.4s-.6,6.3-1.7,9.7c-1.1,3.4-3.5,7.8-7.2,13s-5.9,8.9-6.7,11.1c-.8,2.2-1.2,4.1-1.2,6,0,2.7.8,5.4,2.5,8.2l-2.3,1.8c-3.3-3.8-5-7.8-5-11.9s.4-4.2,1.2-6.5c.8-2.4,2.8-6.2,6.1-11.5,3.3-5.3,5.4-9.4,6.3-12.4.9-2.9,1.4-5.7,1.4-8.2s-1-6.3-2.9-8.6c-1.9-2.4-4.2-3.5-6.8-3.5-4.2,0-7.6,2.3-10.4,6.8h-1.3ZM1642.6,531.4v12.6h-8.4v-12.6h8.4Z"/>
  </g>
</svg>