<?xml version="1.0" encoding="UTF-8"?>
<svg id="Layer_1" xmlns="http://www.w3.org/2000/svg" version="1.1" viewBox="0 0 1200 400">
  <!-- Generator: Adobe Illustrator 30.0.0, SVG Export Plug-In . SVG Version: 2.1.1 Build 123)  -->
  <defs>
    <style>
      .st0 {
        fill: #00549c;
      }

      .st1 {
        fill: #e20017;
        stroke: #e20017;
        stroke-miterlimit: 10;
        stroke-width: 4.4px;
      }
    </style>
  </defs>
  <g>
    <path class="st1" d="M182,227.1c1.1,1.5,2.5,2.8,4,3.9,1.5,1.1,3,2,4.3,2.8,1.4.7,2.3,1.2,2.8,1.5h-56.9c.8-.2,1.9-.7,3.4-1.5,1.5-.7,3-1.7,4.5-2.8,1.5-1.1,2.8-2.4,4-3.9,1.1-1.5,1.7-3.2,1.7-5.2v-81.1c0-8.9-1.2-17.4-3.6-25.6-2.4-8.2-5.7-15.5-10-21.8-4.3-6.3-9.4-11.2-15.5-14.8-6-3.6-12.6-5.3-19.6-5.3-8.8.2-16,2.2-21.7,5.9-5.7,3.7-10.2,8.2-13.6,13.6-3.4,5.4-5.7,11.2-7,17.5-1.3,6.3-1.9,12-1.9,17.1v94.4c0,2,.6,3.7,1.7,5.2,1.1,1.5,2.4,2.8,3.8,3.9,1.4,1.1,2.8,2,4.1,2.8,1.4.7,2.3,1.2,2.8,1.5H12.9c.8-.2,1.9-.7,3.4-1.5,1.5-.7,3-1.7,4.5-2.8,1.5-1.1,2.8-2.4,4-3.9,1.1-1.5,1.7-3.2,1.7-5.2V83.3c0-2-.6-3.7-1.9-5.3s-2.8-3-4.5-4.2c-1.8-1.2-3.4-2.2-4.9-2.8s-2.4-1-2.6-1.3h44.5v28c3.5-7.1,8.5-13.5,15.1-19.2,6.5-5.7,15.2-9.2,26-10.7,10.6-1.5,20.8-1,30.7,1.5,9.9,2.5,18.7,6.6,26.2,12.5,7.5,5.9,13.6,13.4,18.3,22.5,4.7,9.1,7,19.5,7,31.3v86.3c0,2,.6,3.7,1.7,5.2Z"/>
    <path class="st1" d="M319.1,74.4c9.8,4.4,18.4,10.5,25.6,18.3,7.3,7.7,13,16.7,17.2,26.9s6.2,21.2,6.2,33-2.1,22.8-6.2,33-9.9,19.2-17.2,26.9c-7.3,7.7-15.8,13.8-25.6,18.3-9.8,4.4-20.2,6.6-31.3,6.6s-21.4-2.2-31.1-6.6c-9.7-4.4-18.2-10.5-25.5-18.3s-13.1-16.7-17.3-26.9c-4.3-10.2-6.4-21.2-6.4-33s2.1-22.8,6.4-33c4.3-10.2,10.1-19.2,17.3-26.9,7.3-7.7,15.8-13.8,25.5-18.3,9.7-4.4,20-6.6,31.1-6.6s21.5,2.2,31.3,6.6ZM311.7,227.5c6.4-4.2,11.5-10,15.3-17.3,3.8-7.4,6.5-16,8.1-25.8s2.5-20.4,2.5-31.7-.8-21.9-2.5-31.7-4.3-18.4-8.1-25.8c-3.8-7.4-8.9-13.2-15.3-17.3-6.4-4.2-14.4-6.3-23.9-6.3s-17.5,2.1-23.8,6.3c-6.3,4.2-11.4,9.8-15.3,17-3.9,7.1-6.7,15.6-8.3,25.4s-2.5,20.4-2.5,31.7.8,21.9,2.5,31.9c1.6,10,4.4,18.6,8.3,26s9,13.2,15.3,17.5c6.3,4.3,14.2,6.5,23.8,6.5s17.5-2.1,23.9-6.3Z"/>
    <path class="st1" d="M393.7,77.9c-1.3-1.6-2.8-3-4.5-4.1-1.8-1.1-3.4-2-4.9-2.8-1.5-.7-2.4-1.2-2.6-1.5h57.7c-.3.2-1.1.7-2.5,1.5-1.4.7-2.9,1.7-4.5,2.8-1.6,1.1-3.1,2.5-4.3,4.1s-1.9,3.4-1.9,5.3v77.8c0,12.5,1.3,23.5,3.8,32.8s6,17,10.4,23.1c4.4,6,9.4,10.3,15.1,12.7,5.7,2.5,11.6,3.1,17.9,1.8,8.8-1.7,16.1-5.4,21.9-11.1,5.8-5.7,10.4-12,14-19.2,3.5-7.1,6-14.5,7.5-22.1s2.3-14.1,2.3-19.5v-76.3c0-2-.6-3.7-1.9-5.3s-2.8-3-4.5-4.1c-1.8-1.1-3.4-2-4.9-2.8-1.5-.7-2.4-1.2-2.6-1.5h58.1c-.3.2-1.1.7-2.6,1.5-1.5.7-3.1,1.7-4.7,2.8-1.6,1.1-3.1,2.5-4.3,4.1s-1.9,3.4-1.9,5.3v138.7c0,2,.6,3.7,1.7,5.3,1.1,1.6,2.5,3,4,4.2s3,2.2,4.3,3c1.4.7,2.3,1.1,2.8,1.1h-43.4v-49.1c-1.5,4.9-3.4,9.9-5.7,14.9-2.3,5-5.2,9.8-8.7,14.2-3.5,4.4-7.7,8.4-12.6,12-4.9,3.6-10.5,6.2-16.8,7.9-8.8,2.5-17.9,3.1-27.3,1.8-9.4-1.2-18-4.6-25.8-10.1-7.8-5.5-14.1-13.3-19-23.4-4.9-10.1-7.4-22.5-7.4-37.2v-83.4c0-2-.6-3.7-1.9-5.3Z"/>
    <path class="st1" d="M594.9,77.9c-1.6-1.6-3.3-3-5.1-4.1-1.8-1.1-3.4-2-4.9-2.8-1.5-.7-2.6-1.2-3.4-1.5h56.6c-2,1.7-3.6,3.3-4.9,4.8-1.3,1.2-2.2,2.6-2.8,4.2-.6,1.6-.6,3.1.2,4.6l58.1,129.8,21.5-46.1-37.3-83.7c-1-2-2.3-3.7-4-5.3s-3.3-3-5.1-4.1c-1.8-1.1-3.4-2-4.9-2.8-1.5-.7-2.6-1.2-3.4-1.5h56.6c-2,1.7-3.6,3.3-4.9,4.8-1.3,1.2-2.2,2.6-2.8,4.2-.6,1.6-.6,3.1.2,4.6l58.1,129.8,26.8-56.8c7.8-17.5,13.6-33.4,17.5-47.9,3.9-14.5,4.7-27.4,2.5-38.7h26.4l-79.2,166h-15.8l-27.9-63.1-30.2,63.1h-15.8l-67.9-152.3c-1-2-2.3-3.7-4-5.3Z"/>
    <path class="st1" d="M941.1,137.9c-8.7,5.4-17.2,11.4-25.5,17.9-8.3,6.5-15.6,13.3-22.1,20.3-6.4,7-10.7,14-13,20.8-2,5.9-1.9,11.6.4,17,4.3,6.4,9.5,11.3,15.6,14.8s13.3,5.2,21.3,5.2c14.6,0,27.8-3.4,39.6-10.3,11.8-6.9,21.2-16.4,28.3-28.4h3.8c-7.3,12.8-17.2,23.1-29.8,30.8-12.6,7.7-26.5,11.6-41.9,11.6s-22-2.2-32.1-6.6c-10.1-4.4-18.9-10.4-26.4-18.1-7.5-7.6-13.4-16.6-17.7-26.9-4.3-10.3-6.4-21.3-6.4-32.8s2.1-22.8,6.4-33c4.3-10.2,10.2-19.2,17.7-26.9,7.5-7.7,16.3-13.8,26.4-18.3,10.1-4.4,20.7-6.6,32.1-6.6s29.3,3.9,41.9,11.6,22.5,18,29.8,30.8l-25.6,13.6c-6.5,3.7-14.1,8.2-22.8,13.6ZM888.1,176.4c5.5-6.5,11.9-12.8,19-18.8,7.2-6,14.7-11.6,22.6-16.8,7.9-5.2,15.3-9.8,22.1-14,4-2.5,6.9-5.8,8.5-10.1,1.6-4.3,1.7-8.5.2-12.7-3.3-9.6-8.6-17.3-16-23.2-7.4-5.9-16.5-8.9-27.3-8.9s-16.8,2.1-23.2,6.3c-6.4,4.2-11.7,10-15.8,17.3-4.1,7.4-7.2,16-9.2,25.8-2,9.8-3,20.4-3,31.7s.8,18.7,2.3,27.3,3.9,16.4,7.2,23.2c0-1.2.1-2.5.4-3.9.3-1.4.6-2.6,1.1-3.9,2-6.4,5.8-12.8,11.3-19.4Z"/>
    <path class="st1" d="M1176.4,227.1c1.1,1.5,2.5,2.8,4,3.9,1.5,1.1,3,2,4.3,2.8s2.3,1.2,2.8,1.5h-56.9c.8-.2,1.9-.7,3.4-1.5,1.5-.7,3-1.7,4.5-2.8,1.5-1.1,2.8-2.4,4-3.9,1.1-1.5,1.7-3.2,1.7-5.2v-81.1c0-8.9-1.2-17.4-3.6-25.6-2.4-8.2-5.7-15.5-10-21.8-4.3-6.3-9.4-11.2-15.5-14.8-6-3.6-12.6-5.3-19.6-5.3-8.8.2-16,2.2-21.7,5.9-5.7,3.7-10.2,8.2-13.6,13.6-3.4,5.4-5.7,11.2-7,17.5-1.3,6.3-1.9,12-1.9,17.1v94.4c0,2,.6,3.7,1.7,5.2,1.1,1.5,2.4,2.8,3.8,3.9,1.4,1.1,2.8,2,4.1,2.8,1.4.7,2.3,1.2,2.8,1.5h-56.6c.8-.2,1.9-.7,3.4-1.5s3-1.7,4.5-2.8c1.5-1.1,2.8-2.4,4-3.9,1.1-1.5,1.7-3.2,1.7-5.2V83.3c0-2-.6-3.7-1.9-5.3s-2.8-3-4.5-4.2-3.4-2.2-4.9-2.8c-1.5-.6-2.4-1-2.6-1.3h44.5v28c3.5-7.1,8.5-13.5,15.1-19.2,6.5-5.7,15.2-9.2,26-10.7,10.6-1.5,20.8-1,30.7,1.5,9.9,2.5,18.7,6.6,26.2,12.5,7.5,5.9,13.6,13.4,18.3,22.5,4.6,9.1,7,19.5,7,31.3v86.3c0,2,.6,3.7,1.7,5.2Z"/>
  </g>
  <g>
    <path class="st0" d="M223.3,271.9v52.2h-4.1v-52.2h4.1Z"/>
    <path class="st0" d="M271,272.7v3.4c-2.5-.9-4.6-1.3-6.3-1.3-5.7,0-8.5,3.5-8.5,10.6v4.3h6.8v3h-6.8v31.4h-3.7v-31.4h-6.5v-3h6.5v-5.6c0-4,1.2-7.1,3.5-9.4s5.2-3.5,8.6-3.5,4,.5,6.4,1.5Z"/>
    <path class="st0" d="M325.4,289.7v6h.2c2.9-4.4,6.8-6.6,11.6-6.6s7.1,1.2,9.5,3.7c2.4,2.5,3.6,5.9,3.6,10.3v21h-3.7v-19.6c0-7.9-3.2-11.9-9.5-11.9s-8.5,2.5-11.5,7.4v24.1h-3.7v-34.4h3.7Z"/>
    <path class="st0" d="M392,289.1c5.1,0,9.3,1.7,12.7,5.1,3.4,3.4,5.1,7.7,5.1,12.8s-1.7,9.3-5.1,12.7c-3.4,3.4-7.6,5.1-12.7,5.1s-9.3-1.7-12.8-5.1c-3.4-3.4-5.1-7.6-5.1-12.7s1.7-9.4,5.1-12.8c3.4-3.4,7.7-5.1,12.8-5.1ZM392,321.2c3.9,0,7.2-1.4,9.9-4.1,2.6-2.7,4-6.1,4-10.2s-1.3-7.5-4-10.2c-2.7-2.7-6-4.1-9.9-4.1s-7.3,1.4-9.9,4.1-4,6.1-4,10.2,1.3,7.5,4,10.2c2.7,2.7,6,4.1,9.9,4.1Z"/>
    <path class="st0" d="M440.5,278.3v11.4h9.9v3h-9.9v20.4c0,3.3.3,5.4.8,6.5.5,1,2,1.5,4.4,1.5s4-.6,6.4-1.7v3.5c-2.5,1.2-4.9,1.8-7.3,1.8s-4.3-.6-5.8-1.9c-1.6-1.3-2.3-3.1-2.3-5.4v-24.7h-9.5v-3h9.5v-8.2l2.6-3.2h1.2Z"/>
    <path class="st0" d="M514,289.7v6h.2c2.9-4.4,6.8-6.6,11.6-6.6s7.1,1.2,9.5,3.7c2.4,2.5,3.6,5.9,3.6,10.3v21h-3.7v-19.6c0-7.9-3.2-11.9-9.5-11.9s-8.5,2.5-11.5,7.4v24.1h-3.7v-34.4h3.7Z"/>
    <path class="st0" d="M580.6,289.1c5.1,0,9.3,1.7,12.7,5.1,3.4,3.4,5.1,7.7,5.1,12.8s-1.7,9.3-5.1,12.7c-3.4,3.4-7.6,5.1-12.7,5.1s-9.3-1.7-12.8-5.1c-3.4-3.4-5.1-7.6-5.1-12.7s1.7-9.4,5.1-12.8c3.4-3.4,7.7-5.1,12.8-5.1ZM580.6,321.2c3.9,0,7.2-1.4,9.9-4.1,2.6-2.7,4-6.1,4-10.2s-1.3-7.5-4-10.2c-2.7-2.7-6-4.1-9.9-4.1s-7.3,1.4-9.9,4.1-4,6.1-4,10.2,1.3,7.5,4,10.2c2.7,2.7,6,4.1,9.9,4.1Z"/>
    <path class="st0" d="M671.6,289.7l-15.2,35h-1.8l-10.8-27.9-10.9,27.9h-1.7l-15-35h3.7l12,28,11-28h2l10.7,28,12.3-28h3.7Z"/>
    <path class="st0" d="M692.4,316.7v5.8c0,4.5-1.7,8.1-5.1,10.6v-2.7c1.1-1.5,1.6-3.6,1.6-6.3h-1.6v-7.4h5.1Z"/>
    <path class="st0" d="M798.9,289.7l-15.2,35h-1.8l-10.8-27.9-10.9,27.9h-1.7l-15-35h3.7l12,28,11-28h2l10.7,28,12.3-28h3.7Z"/>
    <path class="st0" d="M823,271.9v23.8h.2c2.9-4.4,6.8-6.6,11.6-6.6s7.1,1.2,9.5,3.7c2.4,2.5,3.6,5.9,3.6,10.3v21h-3.7v-19.6c0-7.9-3.2-11.9-9.5-11.9s-8.4,2.5-11.5,7.4v24.1h-3.7v-52.2h3.7Z"/>
    <path class="st0" d="M903.2,305.6h-27.7c0,.6-.1,1.2-.1,1.8,0,3.8,1.4,7.1,4.2,9.7,2.8,2.7,6.1,4,9.9,4s8.8-1.7,13.1-5.1v4.1c-4,3-8.5,4.6-13.5,4.6s-9.3-1.7-12.6-5.2c-3.3-3.4-5-7.8-5-13.1s1.5-9.2,4.6-12.5c3.1-3.3,6.9-4.9,11.5-4.9s8,1.5,11,4.5c3,3,4.5,7,4.5,12.1ZM876,302.7h22.8c-1.3-6.7-5-10-11.1-10s-5.4.9-7.5,2.6c-2.1,1.8-3.5,4.2-4.2,7.4Z"/>
    <path class="st0" d="M930.1,289.7v6h.2c2.9-4.4,6.8-6.6,11.6-6.6s7.1,1.2,9.5,3.7,3.6,5.9,3.6,10.3v21h-3.7v-19.6c0-7.9-3.2-11.9-9.5-11.9s-8.5,2.5-11.5,7.4v24.1h-3.7v-34.4h3.7Z"/>
    <path class="st0" d="M977.4,278.6l1.8-5.9c1.8-.9,3.6-1.4,5.3-1.4,2.9,0,5.3,1,7.1,3,1.8,2,2.7,4.6,2.7,7.9s-.3,3.7-1,5.7c-.7,2-2.1,4.6-4.3,7.7s-3.6,5.3-4,6.5c-.5,1.3-.7,2.4-.7,3.5,0,1.6.5,3.2,1.5,4.8l-1.4,1.1c-2-2.3-3-4.6-3-7s.2-2.5.7-3.8c.5-1.4,1.7-3.7,3.7-6.8,2-3.1,3.3-5.6,3.8-7.3.6-1.7.8-3.3.8-4.8s-.6-3.7-1.7-5.1c-1.1-1.4-2.5-2.1-4.1-2.1-2.5,0-4.6,1.3-6.3,4h-.8ZM987.2,316.7v7.4h-5.1v-7.4h5.1Z"/>
  </g>
</svg>